<?xml version="1.0" standalone="no"?>
<!DOCTYPE svg PUBLIC "-//W3C//DTD SVG 20010904//EN"
 "http://www.w3.org/TR/2001/REC-SVG-20010904/DTD/svg10.dtd">
<svg version="1.0" xmlns="http://www.w3.org/2000/svg"
 width="32.000000pt" height="32.000000pt" viewBox="0 0 32.000000 32.000000"
 preserveAspectRatio="xMidYMid meet">

<g transform="translate(0.000000,32.000000) scale(0.100000,-0.100000)"
fill="#000000" stroke="none">
<path d="M30 176 c0 -63 -3 -121 -6 -130 -4 -12 0 -16 16 -16 16 0 20 4 16 16
-3 9 -6 67 -6 130 0 69 -4 114 -10 114 -6 0 -10 -45 -10 -114z"/>
<path d="M270 176 c0 -63 -3 -121 -6 -130 -4 -12 0 -16 16 -16 16 0 20 4 16
16 -3 9 -6 67 -6 130 0 69 -4 114 -10 114 -6 0 -10 -45 -10 -114z"/>
<path d="M70 240 c0 -23 4 -30 20 -30 16 0 20 7 20 30 0 23 -4 30 -20 30 -16
0 -20 -7 -20 -30z"/>
<path d="M130 240 c0 -27 3 -30 30 -30 27 0 30 3 30 30 0 27 -3 30 -30 30 -27
0 -30 -3 -30 -30z"/>
<path d="M210 240 c0 -23 4 -30 20 -30 16 0 20 7 20 30 0 23 -4 30 -20 30 -16
0 -20 -7 -20 -30z"/>
<path d="M70 160 c0 -23 4 -30 20 -30 16 0 20 7 20 30 0 23 -4 30 -20 30 -16
0 -20 -7 -20 -30z"/>
<path d="M130 160 c0 -27 3 -30 30 -30 27 0 30 3 30 30 0 27 -3 30 -30 30 -27
0 -30 -3 -30 -30z"/>
<path d="M210 160 c0 -23 4 -30 20 -30 16 0 20 7 20 30 0 23 -4 30 -20 30 -16
0 -20 -7 -20 -30z"/>
</g>
</svg>
