<?xml version="1.0" standalone="no"?>
<!DOCTYPE svg PUBLIC "-//W3C//DTD SVG 20010904//EN"
 "http://www.w3.org/TR/2001/REC-SVG-20010904/DTD/svg10.dtd">
<svg version="1.0" xmlns="http://www.w3.org/2000/svg"
 width="32.000000pt" height="32.000000pt" viewBox="0 0 32.000000 32.000000"
 preserveAspectRatio="xMidYMid meet">

<g transform="translate(0.000000,32.000000) scale(0.100000,-0.100000)"
fill="#000000" stroke="none">
<path d="M112 313 c-9 -3 -3 -15 18 -39 17 -20 33 -51 36 -74 5 -32 12 -41 37
-49 49 -18 58 -15 51 17 -11 43 -34 84 -67 120 -30 31 -47 37 -75 25z"/>
<path d="M212 293 c24 -27 58 -100 58 -123 0 -24 37 -28 46 -5 16 40 -59 145
-103 145 -15 0 -15 -2 -1 -17z"/>
<path d="M42 268 c-26 -29 -42 -70 -42 -111 0 -54 15 -62 29 -17 7 23 30 59
51 80 36 36 37 39 21 54 -23 21 -34 20 -59 -6z"/>
<path d="M93 204 c-25 -26 -45 -59 -53 -88 -12 -44 -11 -49 7 -67 19 -20 20
-20 31 18 6 22 25 52 42 68 30 29 36 53 21 90 -8 18 -11 17 -48 -21z"/>
<path d="M130 120 c-27 -27 -25 -38 8 -47 59 -16 172 2 172 27 0 5 3 15 6 23
5 13 -1 14 -35 5 -28 -7 -50 -7 -72 1 -44 15 -56 14 -79 -9z"/>
<path d="M90 33 c0 -43 115 -43 165 0 l26 22 -96 0 c-92 1 -95 0 -95 -22z"/>
</g>
</svg>
